<mxfile host="app.diagrams.net" modified="2023-03-29T14:10:32.776Z" agent="Mozilla/5.0 (Macintosh; Intel Mac OS X 10_15_7) AppleWebKit/537.36 (KHTML, like Gecko) Chrome/111.0.0.0 Safari/537.36" etag="ENFghvj98CFgFvtpYaaY" version="21.1.1" type="device">
  <diagram name="Page-1" id="l7iTjh3mksDtjKVugaI_">
    <mxGraphModel dx="1194" dy="664" grid="1" gridSize="10" guides="1" tooltips="1" connect="1" arrows="1" fold="1" page="1" pageScale="1" pageWidth="1100" pageHeight="850" math="0" shadow="0">
      <root>
        <mxCell id="0" />
        <mxCell id="1" parent="0" />
        <mxCell id="Z3SUC3YKnJrtyQX_-v3F-1" value="" style="rounded=0;whiteSpace=wrap;html=1;" vertex="1" parent="1">
          <mxGeometry x="90" y="70" width="700" height="560" as="geometry" />
        </mxCell>
        <mxCell id="tQceYJ1oLiPAx7l5cZGW-10" style="edgeStyle=orthogonalEdgeStyle;rounded=0;orthogonalLoop=1;jettySize=auto;html=1;exitX=0;exitY=0.5;exitDx=0;exitDy=0;entryX=0.5;entryY=0;entryDx=0;entryDy=0;startArrow=classic;startFill=0;" parent="1" source="tQceYJ1oLiPAx7l5cZGW-4" target="tQceYJ1oLiPAx7l5cZGW-6" edge="1">
          <mxGeometry relative="1" as="geometry" />
        </mxCell>
        <mxCell id="tQceYJ1oLiPAx7l5cZGW-11" style="edgeStyle=orthogonalEdgeStyle;rounded=0;orthogonalLoop=1;jettySize=auto;html=1;exitX=1;exitY=0.5;exitDx=0;exitDy=0;entryX=0.5;entryY=0;entryDx=0;entryDy=0;startArrow=classic;startFill=0;" parent="1" source="tQceYJ1oLiPAx7l5cZGW-4" target="tQceYJ1oLiPAx7l5cZGW-7" edge="1">
          <mxGeometry relative="1" as="geometry" />
        </mxCell>
        <mxCell id="tQceYJ1oLiPAx7l5cZGW-4" value="" style="shape=image;html=1;verticalAlign=top;verticalLabelPosition=bottom;labelBackgroundColor=#ffffff;imageAspect=0;aspect=fixed;image=https://cdn4.iconfinder.com/data/icons/essential-3/32/381-Browser-128.png" parent="1" vertex="1">
          <mxGeometry x="275" y="150" width="80" height="80" as="geometry" />
        </mxCell>
        <mxCell id="tQceYJ1oLiPAx7l5cZGW-5" value="Front End SVC" style="text;html=1;align=center;verticalAlign=middle;resizable=0;points=[];autosize=1;strokeColor=none;fillColor=none;fontSize=15;" parent="1" vertex="1">
          <mxGeometry x="255" y="230" width="120" height="30" as="geometry" />
        </mxCell>
        <mxCell id="tQceYJ1oLiPAx7l5cZGW-16" style="edgeStyle=orthogonalEdgeStyle;rounded=0;orthogonalLoop=1;jettySize=auto;html=1;exitX=0.5;exitY=1;exitDx=0;exitDy=0;entryX=-0.061;entryY=0.479;entryDx=0;entryDy=0;entryPerimeter=0;startArrow=classic;startFill=1;" parent="1" source="tQceYJ1oLiPAx7l5cZGW-6" target="tQceYJ1oLiPAx7l5cZGW-13" edge="1">
          <mxGeometry relative="1" as="geometry">
            <mxPoint x="280" y="450" as="targetPoint" />
            <Array as="points">
              <mxPoint x="200" y="450" />
              <mxPoint x="270" y="450" />
              <mxPoint x="270" y="454" />
            </Array>
          </mxGeometry>
        </mxCell>
        <mxCell id="tQceYJ1oLiPAx7l5cZGW-6" value="Person SVC" style="rounded=1;whiteSpace=wrap;html=1;fontSize=14;" parent="1" vertex="1">
          <mxGeometry x="140" y="290" width="120" height="60" as="geometry" />
        </mxCell>
        <mxCell id="tQceYJ1oLiPAx7l5cZGW-15" style="edgeStyle=orthogonalEdgeStyle;rounded=0;orthogonalLoop=1;jettySize=auto;html=1;exitX=0.5;exitY=1;exitDx=0;exitDy=0;entryX=1.041;entryY=0.52;entryDx=0;entryDy=0;entryPerimeter=0;startArrow=classic;startFill=1;" parent="1" source="tQceYJ1oLiPAx7l5cZGW-7" target="tQceYJ1oLiPAx7l5cZGW-13" edge="1">
          <mxGeometry relative="1" as="geometry">
            <Array as="points">
              <mxPoint x="430" y="450" />
              <mxPoint x="360" y="450" />
              <mxPoint x="360" y="456" />
            </Array>
          </mxGeometry>
        </mxCell>
        <mxCell id="tQceYJ1oLiPAx7l5cZGW-7" value="Connection SVC" style="rounded=1;whiteSpace=wrap;html=1;fontSize=14;" parent="1" vertex="1">
          <mxGeometry x="370" y="290" width="120" height="60" as="geometry" />
        </mxCell>
        <mxCell id="tQceYJ1oLiPAx7l5cZGW-13" value="" style="sketch=0;aspect=fixed;html=1;points=[];align=center;image;fontSize=12;image=img/lib/mscae/Azure_Database_for_PostgreSQL_servers.svg;" parent="1" vertex="1">
          <mxGeometry x="288.4" y="420" width="53.2" height="70" as="geometry" />
        </mxCell>
        <mxCell id="tQceYJ1oLiPAx7l5cZGW-14" value="Database" style="text;html=1;align=center;verticalAlign=middle;resizable=0;points=[];autosize=1;strokeColor=none;fillColor=none;fontSize=15;" parent="1" vertex="1">
          <mxGeometry x="310" y="490" width="90" height="30" as="geometry" />
        </mxCell>
        <mxCell id="tQceYJ1oLiPAx7l5cZGW-18" style="edgeStyle=orthogonalEdgeStyle;rounded=0;orthogonalLoop=1;jettySize=auto;html=1;exitX=0;exitY=0.5;exitDx=0;exitDy=0;" parent="1" source="tQceYJ1oLiPAx7l5cZGW-17" target="tQceYJ1oLiPAx7l5cZGW-13" edge="1">
          <mxGeometry relative="1" as="geometry" />
        </mxCell>
        <mxCell id="tQceYJ1oLiPAx7l5cZGW-17" value="Location SVC" style="rounded=1;whiteSpace=wrap;html=1;fontSize=14;" parent="1" vertex="1">
          <mxGeometry x="430" y="515" width="120" height="60" as="geometry" />
        </mxCell>
        <mxCell id="tQceYJ1oLiPAx7l5cZGW-20" value="Consumes" style="edgeStyle=orthogonalEdgeStyle;rounded=0;orthogonalLoop=1;jettySize=auto;html=1;exitX=0.5;exitY=1;exitDx=0;exitDy=0;entryX=1;entryY=0.5;entryDx=0;entryDy=0;" parent="1" source="tQceYJ1oLiPAx7l5cZGW-19" target="tQceYJ1oLiPAx7l5cZGW-17" edge="1">
          <mxGeometry relative="1" as="geometry" />
        </mxCell>
        <mxCell id="tQceYJ1oLiPAx7l5cZGW-19" value="Kafka SVC" style="rounded=1;whiteSpace=wrap;html=1;" parent="1" vertex="1">
          <mxGeometry x="570" y="415" width="120" height="60" as="geometry" />
        </mxCell>
        <mxCell id="tQceYJ1oLiPAx7l5cZGW-22" value="Produces" style="edgeStyle=orthogonalEdgeStyle;rounded=0;orthogonalLoop=1;jettySize=auto;html=1;" parent="1" source="tQceYJ1oLiPAx7l5cZGW-21" target="tQceYJ1oLiPAx7l5cZGW-19" edge="1">
          <mxGeometry relative="1" as="geometry" />
        </mxCell>
        <mxCell id="tQceYJ1oLiPAx7l5cZGW-21" value="Location Ingest SVC" style="rounded=1;whiteSpace=wrap;html=1;fontSize=14;" parent="1" vertex="1">
          <mxGeometry x="570" y="280" width="120" height="60" as="geometry" />
        </mxCell>
        <mxCell id="tQceYJ1oLiPAx7l5cZGW-24" value="" style="edgeStyle=orthogonalEdgeStyle;rounded=0;orthogonalLoop=1;jettySize=auto;html=1;" parent="1" source="tQceYJ1oLiPAx7l5cZGW-23" target="tQceYJ1oLiPAx7l5cZGW-21" edge="1">
          <mxGeometry relative="1" as="geometry" />
        </mxCell>
        <mxCell id="tQceYJ1oLiPAx7l5cZGW-23" value="" style="sketch=0;html=1;aspect=fixed;strokeColor=none;shadow=0;fillColor=#3B8DF1;verticalAlign=top;labelPosition=center;verticalLabelPosition=bottom;shape=mxgraph.gcp2.phone_android" parent="1" vertex="1">
          <mxGeometry x="613.1999999999999" y="130" width="33.6" height="60" as="geometry" />
        </mxCell>
        <mxCell id="tQceYJ1oLiPAx7l5cZGW-27" value="gRPC" style="text;html=1;align=center;verticalAlign=middle;resizable=0;points=[];autosize=1;strokeColor=none;fillColor=none;fontSize=15;" parent="1" vertex="1">
          <mxGeometry x="630" y="210" width="60" height="30" as="geometry" />
        </mxCell>
      </root>
    </mxGraphModel>
  </diagram>
</mxfile>
